<svg width="60" height="60" viewBox="0 0 60 60" fill="none" xmlns="http://www.w3.org/2000/svg">
<rect width="60" height="60" fill="black"/>
<path d="M16.2869 26.8182C16.223 26.2784 15.9638 25.8594 15.5092 25.5611C15.0547 25.2628 14.4972 25.1136 13.8366 25.1136C13.3537 25.1136 12.9311 25.1918 12.5689 25.348C12.2102 25.5043 11.9297 25.7191 11.7273 25.9925C11.5284 26.266 11.429 26.5767 11.429 26.9247C11.429 27.2159 11.4982 27.4663 11.6367 27.6758C11.7788 27.8817 11.9599 28.054 12.18 28.1925C12.4002 28.3274 12.631 28.4393 12.8725 28.5281C13.114 28.6133 13.3359 28.6825 13.5384 28.7358L14.6463 29.0341C14.9304 29.1087 15.2464 29.2116 15.5945 29.343C15.946 29.4744 16.2816 29.6538 16.6012 29.881C16.9244 30.1048 17.1907 30.3924 17.4002 30.744C17.6097 31.0955 17.7145 31.527 17.7145 32.0384C17.7145 32.6278 17.56 33.1605 17.2511 33.6364C16.9457 34.1122 16.4982 34.4904 15.9087 34.771C15.3228 35.0515 14.6108 35.1918 13.7727 35.1918C12.9915 35.1918 12.315 35.0657 11.7433 34.8136C11.1751 34.5614 10.7276 34.2099 10.4009 33.7589C10.0778 33.3079 9.89489 32.7841 9.85227 32.1875H11.2159C11.2514 32.5994 11.3899 32.9403 11.6314 33.2102C11.8764 33.4766 12.1854 33.6754 12.5582 33.8068C12.9347 33.9347 13.3395 33.9986 13.7727 33.9986C14.277 33.9986 14.7298 33.9169 15.131 33.7536C15.5323 33.5866 15.8501 33.3558 16.0845 33.0611C16.3189 32.7628 16.4361 32.4148 16.4361 32.017C16.4361 31.6548 16.3349 31.3601 16.1325 31.1328C15.93 30.9055 15.6637 30.7209 15.3335 30.5788C15.0032 30.4368 14.6463 30.3125 14.2628 30.206L12.9205 29.8224C12.0682 29.5774 11.3935 29.2276 10.8963 28.7731C10.3991 28.3185 10.1506 27.7237 10.1506 26.9886C10.1506 26.3778 10.3157 25.8452 10.646 25.3906C10.9798 24.9325 11.4272 24.5774 11.9883 24.3253C12.5529 24.0696 13.1832 23.9418 13.8793 23.9418C14.5824 23.9418 15.2074 24.0678 15.7543 24.32C16.3011 24.5685 16.7344 24.9094 17.054 25.3427C17.3771 25.7759 17.5476 26.2678 17.5653 26.8182H16.2869ZM29.091 29.5455C29.091 30.696 28.8833 31.6903 28.4678 32.5284C28.0523 33.3665 27.4823 34.0128 26.7579 34.4673C26.0335 34.9219 25.2061 35.1491 24.2757 35.1491C23.3453 35.1491 22.5178 34.9219 21.7934 34.4673C21.069 34.0128 20.499 33.3665 20.0835 32.5284C19.6681 31.6903 19.4603 30.696 19.4603 29.5455C19.4603 28.3949 19.6681 27.4006 20.0835 26.5625C20.499 25.7244 21.069 25.0781 21.7934 24.6236C22.5178 24.169 23.3453 23.9418 24.2757 23.9418C25.2061 23.9418 26.0335 24.169 26.7579 24.6236C27.4823 25.0781 28.0523 25.7244 28.4678 26.5625C28.8833 27.4006 29.091 28.3949 29.091 29.5455ZM27.8126 29.5455C27.8126 28.6009 27.6546 27.8036 27.3385 27.1538C27.026 26.5039 26.6017 26.0121 26.0654 25.6783C25.5328 25.3445 24.9362 25.1776 24.2757 25.1776C23.6151 25.1776 23.0168 25.3445 22.4806 25.6783C21.9479 26.0121 21.5235 26.5039 21.2075 27.1538C20.895 27.8036 20.7387 28.6009 20.7387 29.5455C20.7387 30.4901 20.895 31.2873 21.2075 31.9371C21.5235 32.587 21.9479 33.0788 22.4806 33.4126C23.0168 33.7464 23.6151 33.9134 24.2757 33.9134C24.9362 33.9134 25.5328 33.7464 26.0654 33.4126C26.6017 33.0788 27.026 32.587 27.3385 31.9371C27.6546 31.2873 27.8126 30.4901 27.8126 29.5455ZM31.3122 35V24.0909H34.9983C35.8541 24.0909 36.5537 24.2454 37.097 24.5543C37.6439 24.8597 38.0487 25.2734 38.3115 25.7955C38.5743 26.3175 38.7057 26.8999 38.7057 27.5426C38.7057 28.1854 38.5743 28.7695 38.3115 29.2951C38.0523 29.8207 37.651 30.2397 37.1077 30.5522C36.5644 30.8612 35.8683 31.0156 35.0196 31.0156H32.3776V29.8438H34.977C35.5629 29.8438 36.0335 29.7425 36.3886 29.5401C36.7437 29.3377 37.0012 29.0643 37.161 28.7198C37.3243 28.3718 37.406 27.9794 37.406 27.5426C37.406 27.1058 37.3243 26.7152 37.161 26.3707C37.0012 26.0263 36.7419 25.7564 36.3833 25.5611C36.0246 25.3622 35.5487 25.2628 34.9557 25.2628H32.6333V35H31.3122ZM46.7996 26.8182C46.7357 26.2784 46.4765 25.8594 46.0219 25.5611C45.5674 25.2628 45.0099 25.1136 44.3493 25.1136C43.8664 25.1136 43.4438 25.1918 43.0816 25.348C42.7229 25.5043 42.4424 25.7191 42.24 25.9925C42.0411 26.266 41.9417 26.5767 41.9417 26.9247C41.9417 27.2159 42.0109 27.4663 42.1494 27.6758C42.2915 27.8817 42.4726 28.054 42.6927 28.1925C42.9129 28.3274 43.1437 28.4393 43.3852 28.5281C43.6267 28.6133 43.8486 28.6825 44.051 28.7358L45.159 29.0341C45.4431 29.1087 45.7591 29.2116 46.1072 29.343C46.4587 29.4744 46.7943 29.6538 47.1139 29.881C47.4371 30.1048 47.7034 30.3924 47.9129 30.744C48.1224 31.0955 48.2272 31.527 48.2272 32.0384C48.2272 32.6278 48.0727 33.1605 47.7638 33.6364C47.4584 34.1122 47.0109 34.4904 46.4214 34.771C45.8355 35.0515 45.1235 35.1918 44.2854 35.1918C43.5042 35.1918 42.8277 35.0657 42.2559 34.8136C41.6878 34.5614 41.2403 34.2099 40.9136 33.7589C40.5905 33.3079 40.4076 32.7841 40.365 32.1875H41.7286C41.7641 32.5994 41.9026 32.9403 42.1441 33.2102C42.3891 33.4766 42.6981 33.6754 43.0709 33.8068C43.4474 33.9347 43.8522 33.9986 44.2854 33.9986C44.7897 33.9986 45.2425 33.9169 45.6437 33.7536C46.045 33.5866 46.3628 33.3558 46.5972 33.0611C46.8316 32.7628 46.9488 32.4148 46.9488 32.017C46.9488 31.6548 46.8476 31.3601 46.6452 31.1328C46.4427 30.9055 46.1764 30.7209 45.8461 30.5788C45.5159 30.4368 45.159 30.3125 44.7755 30.206L43.4332 29.8224C42.5809 29.5774 41.9062 29.2276 41.409 28.7731C40.9118 28.3185 40.6633 27.7237 40.6633 26.9886C40.6633 26.3778 40.8284 25.8452 41.1586 25.3906C41.4925 24.9325 41.9399 24.5774 42.501 24.3253C43.0656 24.0696 43.6959 23.9418 44.392 23.9418C45.0951 23.9418 45.7201 24.0678 46.267 24.32C46.8138 24.5685 47.2471 24.9094 47.5667 25.3427C47.8898 25.7759 48.0603 26.2678 48.078 26.8182H46.7996Z" fill="white"/>
</svg>
